HIERARCHY
ROOT hip
{
	OFFSET 0.000000 0.000000 0.000000 
	CHANNELS 6 Xposition Yposition Zposition Xrotation Zrotation Yrotation
	JOINT abdomen
	{
		OFFSET 0.000000 3.402643 0.000000 
		CHANNELS 3 Xrotation Zrotation Yrotation
		JOINT chest
		{
			OFFSET 0.000000 8.438565 -0.680529 
			CHANNELS 3 Xrotation Zrotation Yrotation
			JOINT neck
			{
				OFFSET 0.000000 10.207942 -0.272212 
				CHANNELS 3 Xrotation Zrotation Yrotation
				JOINT head
				{
					OFFSET 0.000000 3.130431 0.000000 
					CHANNELS 3 Xrotation Zrotation Yrotation
					End Site
					{
						OFFSET 0.000000 3.130435 0.000000 
					}
				}
			}
			JOINT lCollar
			{
				OFFSET 3.470700 6.669187 -0.816635 
				CHANNELS 3 Zrotation Yrotation Xrotation
				JOINT lShldr
				{
					OFFSET 3.198488 0.000000 0.000000 
					CHANNELS 3 Zrotation Yrotation Xrotation
					JOINT lForeArm
					{
						OFFSET 10.139888 0.000000 0.000000 
						CHANNELS 3 Yrotation Zrotation Xrotation
						JOINT lHand
						{
							OFFSET 8.370511 0.000000 0.000000 
							CHANNELS 3 Zrotation Yrotation Xrotation
							End Site
							{
								OFFSET 4.083176 0.000000 0.000000 
							}
						}
					}
				}
			}
			JOINT rCollar
			{
				OFFSET -3.470700 6.669187 -0.816635 
				CHANNELS 3 Zrotation Yrotation Xrotation
				JOINT rShldr
				{
					OFFSET -3.198488 0.000000 0.000000 
					CHANNELS 3 Zrotation Yrotation Xrotation
					JOINT rForeArm
					{
						OFFSET -10.139888 0.000000 0.000000 
						CHANNELS 3 Yrotation Zrotation Xrotation
						JOINT rHand
						{
							OFFSET -8.370511 0.000000 0.000000 
							CHANNELS 3 Zrotation Yrotation Xrotation
							End Site
							{
								OFFSET -4.083176 0.000000 0.000000 
							}
						}
					}
				}
			}
		}
	}
	JOINT lThigh
	{
		OFFSET 5.308129 -1.633274 1.361059 
		CHANNELS 3 Xrotation Zrotation Yrotation
		JOINT lShin
		{
			OFFSET -2.041588 -20.007561 0.000000 
			CHANNELS 3 Xrotation Zrotation Yrotation
			JOINT lFoot
			{
				OFFSET 0.000000 -19.190928 -1.224953 
				CHANNELS 3 Xrotation Yrotation Zrotation
				End Site
				{
					OFFSET 0.000000 -2.449906 4.627600 
				}
			}
		}
	}
	JOINT rThigh
	{
		OFFSET -5.308129 -1.633274 1.361059 
		CHANNELS 3 Xrotation Zrotation Yrotation
		JOINT rShin
		{
			OFFSET 2.041588 -20.007561 0.000000 
			CHANNELS 3 Xrotation Zrotation Yrotation
			JOINT rFoot
			{
				OFFSET 0.000000 -19.190928 -1.224953 
				CHANNELS 3 Xrotation Yrotation Zrotation
				End Site
				{
					OFFSET 0.000000 -2.449906 4.627600 
				}
			}
		}
	}
}
MOTION
Frames: 8
Frame Time: 0.016667
-0.147728 53.498917 -3.464502 -9.541529 1.478114 5.265441 29.009525 -1.009551 -0.677913 -1.313468 3.747685 -3.031338 -7.099862 0.768646 -0.076788 10.143181 -7.814263 12.056531 -14.887437 -7.519892 1.204489 -57.945427 12.371210 -16.800468 -21.960056 -5.000000 39.262142 -9.386444 0.900330 -1.801437 13.458543 4.973091 0.462154 57.975002 -1.594161 -3.770343 21.070665 5.000000 28.782038 18.168724 -18.748659 -5.724504 17.181822 11.931520 8.242738 3.801566 -6.671559 -0.713565 -7.621063 3.989242 -6.204120 20.832752 -6.200658 -15.663934 0.799302 2.971208 0.085329 -6.525816 -5.052763 5.511158 
-0.139702 53.498924 -3.466756 -9.541647 1.487932 5.226393 28.941280 -1.039519 -0.678398 -1.359699 3.728233 -3.021636 -6.943517 0.799075 -0.071516 10.304220 -7.759484 11.965524 -14.860243 -7.586579 1.219540 -58.028435 12.387197 -16.793583 -22.019142 -5.000000 39.020336 -9.473684 0.979451 -1.667961 13.468408 5.129370 0.501102 58.002457 -1.565760 -3.643016 20.762663 5.000000 29.050879 18.327124 -18.707455 -5.988315 17.191549 11.901772 8.266381 3.795603 -6.697479 -0.712939 -7.505500 3.971477 -6.235434 20.813770 -6.249378 -15.606839 0.809077 2.988877 0.095522 -6.483033 -5.045940 5.483801 
-0.130697 53.499908 -3.469086 -9.550147 1.507429 5.207125 28.902212 -1.055739 -0.662738 -1.377286 3.708757 -3.002146 -6.806836 0.828042 -0.075898 10.390415 -7.741214 11.936506 -14.821895 -7.615730 1.223825 -58.084019 12.361354 -16.739790 -22.102039 -5.000000 38.828804 -9.541775 1.028921 -1.598550 13.487940 5.246727 0.529709 58.020210 -1.498252 -3.486339 20.493202 5.000000 29.269279 18.472088 -18.642662 -6.096676 17.200533 11.872688 8.270325 3.790158 -6.700572 -0.713091 -7.484689 3.969178 -6.183074 20.820854 -6.288187 -15.617024 0.829883 3.003497 0.106394 -6.485834 -4.986209 5.499015 
-0.121042 53.501534 -3.471469 -9.567904 1.526879 5.207128 28.882530 -1.064351 -0.666311 -1.386715 3.698997 -3.001516 -6.689554 0.868126 -0.072087 10.415634 -7.760323 11.936507 -14.802551 -7.625587 1.224716 -58.128166 12.311553 -16.679911 -22.198805 -5.000000 38.660015 -9.580222 1.045584 -1.552733 13.527233 5.335027 0.557264 58.018559 -1.410945 -3.320012 20.239958 5.000000 29.456621 18.592793 -18.579830 -6.098870 17.209919 11.842834 8.264033 3.795563 -6.697411 -0.742179 -7.520614 3.979235 -6.102690 20.831787 -6.317704 -15.654493 0.829884 3.003495 0.106394 -6.471030 -5.019076 5.474459 
-0.112390 53.502846 -3.474100 -9.585927 1.546354 5.197369 28.852922 -1.077081 -0.661024 -1.406540 3.689215 -3.011892 -6.572392 0.887437 -0.075009 10.451325 -7.769598 11.946177 -14.773703 -7.645097 1.227273 -58.171780 12.270160 -16.612751 -22.296757 -5.000000 38.508484 -9.618319 1.041427 -1.513133 13.556428 5.413463 0.575528 58.036655 -1.343355 -3.182638 20.024525 5.000000 29.626802 18.703373 -18.549883 -6.130255 17.218836 11.813711 8.267969 3.802337 -6.704782 -0.753035 -7.538548 3.979867 -6.038437 20.856524 -6.337992 -15.699219 0.850045 3.007986 0.108119 -6.490894 -5.027410 5.491633 
-0.107750 53.502846 -3.477737 -9.585927 1.546354 5.197369 28.823135 -1.094044 -0.647154 -1.437438 3.698932 -3.031382 -6.513824 0.906748 -0.077931 10.504702 -7.748534 12.015203 -14.755026 -7.673845 1.233074 -58.212173 12.252234 -16.578180 -22.407885 -5.000000 38.422318 -9.635332 0.968812 -1.471577 13.565935 5.472151 0.584959 58.075008 -1.344077 -3.143209 19.966974 5.000000 29.728794 18.795286 -18.688223 -6.243952 17.212753 11.805161 8.265142 3.822305 -6.693345 -0.764482 -7.539439 3.973881 -6.029782 20.839003 -6.358044 -15.714430 0.880158 3.019501 0.090366 -6.491027 -4.973719 5.504847 
-0.103110 53.502846 -3.481371 -9.585927 1.546354 5.197369 28.793520 -1.106889 -0.642134 -1.468341 3.708647 -3.050872 -6.445323 0.917865 -0.069737 10.565828 -7.737019 12.084228 -14.726844 -7.712253 1.241818 -58.251041 12.229229 -16.535423 -22.522676 -5.000000 38.324181 -9.652288 0.897861 -1.420343 13.585651 5.530938 0.603657 58.113354 -1.344800 -3.103778 19.902960 5.000000 29.821638 18.887665 -18.826296 -6.361106 17.189587 11.803319 8.254525 3.854410 -6.697508 -0.747819 -7.546489 3.988799 -6.023342 20.812624 -6.347054 -15.742092 0.886187 2.987179 0.090771 -6.496535 -5.016493 5.506718 
-0.098369 53.502846 -3.483705 -9.615584 1.536581 5.216891 28.793362 -1.091734 -0.656311 -1.468051 3.718429 -3.041126 -6.445360 0.946832 -0.074120 10.634344 -7.717078 12.113246 -14.688766 -7.710619 1.247952 -58.285885 12.182604 -16.473238 -22.667068 -5.000000 38.224957 -9.698464 0.803704 -1.385445 13.595242 5.540823 0.603199 58.142578 -1.325780 -3.083899 19.880648 5.000000 29.881863 18.974514 -18.886246 -6.427798 17.216394 11.816691 8.247250 3.851897 -6.710217 -0.757808 -7.575999 3.992459 -6.031953 20.832964 -6.347166 -15.721971 0.906819 2.991109 0.082233 -6.521763 -4.986278 5.541366 
